<?xml version="1.0" standalone="no"?>
<!DOCTYPE svg PUBLIC "-//W3C//DTD SVG 20010904//EN"
 "http://www.w3.org/TR/2001/REC-SVG-20010904/DTD/svg10.dtd">
<svg version="1.0" xmlns="http://www.w3.org/2000/svg"
 width="282.000000pt" height="62.000000pt" viewBox="0 0 282.000000 62.000000"
 preserveAspectRatio="xMidYMid meet">

<g transform="translate(0.000000,62.000000) scale(0.100000,-0.100000)"
fill="#000000" stroke="none">
<path d="M432 492 l-103 -3 3 -37 3 -37 98 -8 c54 -5 101 -7 103 -4 3 3 4 24
2 48 l-3 44 -103 -3z"/>
<path d="M658 470 c-58 -31 -83 -74 -83 -146 0 -50 5 -66 27 -96 35 -46 84
-68 150 -68 71 0 124 31 155 89 29 56 29 96 0 151 -43 82 -162 115 -249 70z
m147 -85 c31 -30 33 -82 4 -119 -46 -58 -143 -18 -143 59 0 76 87 113 139 60z"/>
<path d="M950 373 c0 -99 3 -123 20 -150 29 -48 71 -66 146 -61 112 7 147 64
142 230 l-3 93 -47 3 -48 3 0 -113 c0 -125 -5 -138 -55 -138 -55 0 -65 22 -65
143 l0 107 -45 0 -45 0 0 -117z"/>
<path d="M1280 325 l0 -165 44 0 45 0 3 43 c3 39 5 42 33 45 27 3 33 -2 53
-43 21 -45 22 -45 72 -45 27 0 50 3 50 6 0 3 -14 25 -31 50 l-30 45 25 30 c20
23 26 42 26 78 0 91 -47 121 -195 121 l-95 0 0 -165z m188 79 c47 -33 11 -88
-55 -82 -35 3 -38 6 -41 36 -2 19 -1 40 2 48 7 19 66 18 94 -2z"/>
<path d="M1600 325 l0 -165 40 0 39 0 3 93 3 92 70 -92 c69 -90 71 -92 113
-92 l42 -1 0 165 0 165 -45 0 -44 0 -3 -92 -3 -92 -69 92 c-65 89 -69 92 -107
92 l-39 0 0 -165z"/>
<path d="M1993 325 l-71 -165 48 0 c45 0 49 2 59 30 10 31 11 31 78 28 63 -3
69 -5 81 -31 11 -23 19 -27 58 -27 24 0 44 3 44 7 0 4 -30 78 -67 165 l-66
158 -46 0 -47 0 -71 -165z m140 8 l17 -43 -41 0 c-29 0 -40 4 -36 13 2 6 10
29 18 49 15 43 19 41 42 -19z"/>
<path d="M2310 325 l0 -165 115 0 115 0 0 40 0 40 -70 0 -70 0 0 125 0 125
-45 0 -45 0 0 -165z"/>
<path d="M450 365 c0 -11 12 -15 45 -15 33 0 45 4 45 15 0 11 -12 15 -45 15
-33 0 -45 -4 -45 -15z"/>
<path d="M454 331 c-13 -14 1 -21 41 -21 29 0 45 4 45 13 0 11 -75 18 -86 8z"/>
<path d="M445 268 c-12 -26 -58 -36 -81 -17 -12 10 -19 8 -39 -11 -32 -30 -32
-36 8 -60 37 -23 112 -27 152 -8 30 14 55 55 55 93 0 23 -4 25 -43 25 -34 0
-44 -4 -52 -22z"/>
</g>
</svg>
